M48
; DRILL file {KiCad 9.0.6} date 2025-12-12T10:34:08-0600
; FORMAT={-:-/ absolute / metric / decimal}
; #@! TF.CreationDate,2025-12-12T10:34:08-06:00
; #@! TF.GenerationSoftware,Kicad,Pcbnew,9.0.6
; #@! TF.FileFunction,Plated,1,2,PTH
FMAT,2
METRIC
; #@! TA.AperFunction,Plated,PTH,ViaDrill
T1C0.300
; #@! TA.AperFunction,Plated,PTH,ComponentDrill
T2C1.000
%
G90
G05
T1
X92.0Y-91.0
X92.0Y-92.0
X92.0Y-93.0
X92.0Y-94.0
X92.0Y-95.0
X92.0Y-96.0
X92.0Y-97.0
X92.0Y-98.0
X97.0Y-101.0
X97.0Y-104.0
X97.0Y-107.0
X97.0Y-110.0
X97.0Y-113.0
X97.0Y-116.0
X97.0Y-119.0
X97.0Y-122.0
X101.95Y-101.0
X101.95Y-104.0
X101.95Y-107.0
X101.95Y-110.0
X101.95Y-113.0
X101.95Y-116.0
X101.95Y-119.0
X101.95Y-122.0
X105.975Y-101.0
X105.975Y-104.0
X105.975Y-107.0
X105.975Y-110.0
X105.975Y-113.0
X105.975Y-116.0
X105.975Y-119.0
X105.975Y-122.0
X109.925Y-101.0
X109.925Y-104.0
X109.925Y-107.0
X109.925Y-110.0
X109.925Y-113.0
X109.925Y-116.0
X109.925Y-119.0
X109.925Y-122.0
X113.95Y-101.0
X113.95Y-104.0
X113.95Y-107.0
X113.95Y-110.0
X113.95Y-113.0
X113.95Y-116.0
X113.95Y-119.0
X113.95Y-122.0
X117.95Y-101.0
X117.95Y-104.0
X117.95Y-107.0
X117.95Y-110.0
X117.95Y-113.0
X117.95Y-116.0
X117.95Y-119.0
X117.95Y-122.0
X121.975Y-101.0
X121.975Y-104.0
X121.975Y-107.0
X121.975Y-110.0
X121.975Y-113.0
X121.975Y-116.0
X121.975Y-119.0
X121.975Y-122.0
X125.925Y-101.0
X125.925Y-104.0
X125.925Y-107.0
X125.925Y-110.0
X125.925Y-113.0
X125.925Y-116.0
X125.925Y-119.0
X125.925Y-122.0
X129.95Y-101.0
X129.95Y-104.0
X129.95Y-107.0
X129.95Y-110.0
X129.95Y-113.0
X129.95Y-116.0
X129.95Y-119.0
X129.95Y-122.0
X134.0Y-101.0
X134.0Y-104.0
X134.0Y-107.0
X134.0Y-110.0
X134.0Y-113.0
X134.0Y-116.0
X134.0Y-119.0
X134.0Y-122.0
X138.025Y-101.0
X138.025Y-104.0
X138.025Y-107.0
X138.025Y-110.0
X138.025Y-113.0
X138.025Y-116.0
X138.025Y-119.0
X138.025Y-122.0
X141.975Y-101.0
X141.975Y-104.0
X141.975Y-107.0
X141.975Y-110.0
X141.975Y-113.0
X141.975Y-116.0
X141.975Y-119.0
X141.975Y-122.0
X146.0Y-101.0
X146.0Y-104.0
X146.0Y-107.0
X146.0Y-110.0
X146.0Y-113.0
X146.0Y-116.0
X146.0Y-119.0
X146.0Y-122.0
X150.0Y-101.0
X150.0Y-104.0
X150.0Y-107.0
X150.0Y-110.0
X150.0Y-113.0
X150.0Y-116.0
X150.0Y-119.0
X150.0Y-122.0
X154.025Y-101.0
X154.025Y-104.0
X154.025Y-107.0
X154.025Y-110.0
X154.025Y-113.0
X154.025Y-116.0
X154.025Y-119.0
X154.025Y-122.0
X157.975Y-101.0
X157.975Y-104.0
X157.975Y-107.0
X157.975Y-110.0
X157.975Y-113.0
X157.975Y-116.0
X157.975Y-119.0
X157.975Y-122.0
X162.0Y-101.0
X162.0Y-104.0
X162.0Y-107.0
X162.0Y-110.0
X162.0Y-113.0
X162.0Y-116.0
X162.0Y-119.0
X162.0Y-122.0
X173.0Y-113.0
X174.0Y-113.0
X177.0Y-112.0
X178.0Y-116.0
X179.0Y-118.0
X181.0Y-113.0
X183.0Y-105.0
X183.0Y-106.0
X184.0Y-107.0
X185.0Y-107.0
X186.0Y-107.0
X186.0Y-110.0
X187.0Y-107.0
X187.0Y-108.0
X188.0Y-108.0
X189.0Y-98.0
T2
X185.0Y-114.0
X185.0Y-116.54
X185.0Y-119.08
X185.0Y-121.62
M30
