%TF.GenerationSoftware,KiCad,Pcbnew,9.0.6*%
%TF.CreationDate,2025-12-12T10:33:16-06:00*%
%TF.ProjectId,led-pcb,6c65642d-7063-4622-9e6b-696361645f70,rev?*%
%TF.SameCoordinates,Original*%
%TF.FileFunction,Copper,L1,Top*%
%TF.FilePolarity,Positive*%
%FSLAX46Y46*%
G04 Gerber Fmt 4.6, Leading zero omitted, Abs format (unit mm)*
G04 Created by KiCad (PCBNEW 9.0.6) date 2025-12-12 10:33:16*
%MOMM*%
%LPD*%
G01*
G04 APERTURE LIST*
G04 Aperture macros list*
%AMRoundRect*
0 Rectangle with rounded corners*
0 $1 Rounding radius*
0 $2 $3 $4 $5 $6 $7 $8 $9 X,Y pos of 4 corners*
0 Add a 4 corners polygon primitive as box body*
4,1,4,$2,$3,$4,$5,$6,$7,$8,$9,$2,$3,0*
0 Add four circle primitives for the rounded corners*
1,1,$1+$1,$2,$3*
1,1,$1+$1,$4,$5*
1,1,$1+$1,$6,$7*
1,1,$1+$1,$8,$9*
0 Add four rect primitives between the rounded corners*
20,1,$1+$1,$2,$3,$4,$5,0*
20,1,$1+$1,$4,$5,$6,$7,0*
20,1,$1+$1,$6,$7,$8,$9,0*
20,1,$1+$1,$8,$9,$2,$3,0*%
G04 Aperture macros list end*
%TA.AperFunction,SMDPad,CuDef*%
%ADD10RoundRect,0.237500X-0.287500X-0.237500X0.287500X-0.237500X0.287500X0.237500X-0.287500X0.237500X0*%
%TD*%
%TA.AperFunction,SMDPad,CuDef*%
%ADD11RoundRect,0.237500X-0.250000X-0.237500X0.250000X-0.237500X0.250000X0.237500X-0.250000X0.237500X0*%
%TD*%
%TA.AperFunction,ComponentPad*%
%ADD12R,1.700000X1.700000*%
%TD*%
%TA.AperFunction,ComponentPad*%
%ADD13C,1.700000*%
%TD*%
%TA.AperFunction,SMDPad,CuDef*%
%ADD14RoundRect,0.237500X-0.300000X-0.237500X0.300000X-0.237500X0.300000X0.237500X-0.300000X0.237500X0*%
%TD*%
%TA.AperFunction,SMDPad,CuDef*%
%ADD15R,1.500000X0.435000*%
%TD*%
%TA.AperFunction,ViaPad*%
%ADD16C,0.600000*%
%TD*%
%TA.AperFunction,Conductor*%
%ADD17C,0.200000*%
%TD*%
G04 APERTURE END LIST*
D10*
%TO.P,D65,1,K*%
%TO.N,row8*%
X135125000Y-101000000D03*
%TO.P,D65,2,A*%
%TO.N,/col0*%
X136875000Y-101000000D03*
%TD*%
%TO.P,D28,1,K*%
%TO.N,row3*%
X115125000Y-110000000D03*
%TO.P,D28,2,A*%
%TO.N,/col3*%
X116875000Y-110000000D03*
%TD*%
%TO.P,D11,1,K*%
%TO.N,row1*%
X107125000Y-107000000D03*
%TO.P,D11,2,A*%
%TO.N,/col2*%
X108875000Y-107000000D03*
%TD*%
%TO.P,D110,1,K*%
%TO.N,row13*%
X155125000Y-116000000D03*
%TO.P,D110,2,A*%
%TO.N,/col5*%
X156875000Y-116000000D03*
%TD*%
%TO.P,D92,1,K*%
%TO.N,row11*%
X147125000Y-110000000D03*
%TO.P,D92,2,A*%
%TO.N,/col3*%
X148875000Y-110000000D03*
%TD*%
%TO.P,D50,1,K*%
%TO.N,row6*%
X127125000Y-104000000D03*
%TO.P,D50,2,A*%
%TO.N,/col1*%
X128875000Y-104000000D03*
%TD*%
%TO.P,D10,1,K*%
%TO.N,row1*%
X107125000Y-104000000D03*
%TO.P,D10,2,A*%
%TO.N,/col1*%
X108875000Y-104000000D03*
%TD*%
%TO.P,D91,1,K*%
%TO.N,row11*%
X147125000Y-107000000D03*
%TO.P,D91,2,A*%
%TO.N,/col2*%
X148875000Y-107000000D03*
%TD*%
%TO.P,D105,1,K*%
%TO.N,row13*%
X155125000Y-101000000D03*
%TO.P,D105,2,A*%
%TO.N,/col0*%
X156875000Y-101000000D03*
%TD*%
%TO.P,D73,1,K*%
%TO.N,row9*%
X139125000Y-101000000D03*
%TO.P,D73,2,A*%
%TO.N,/col0*%
X140875000Y-101000000D03*
%TD*%
D11*
%TO.P,R2,1*%
%TO.N,com1*%
X98112500Y-104000000D03*
%TO.P,R2,2*%
%TO.N,/col1*%
X99937500Y-104000000D03*
%TD*%
D10*
%TO.P,D39,1,K*%
%TO.N,row4*%
X119125000Y-119000000D03*
%TO.P,D39,2,A*%
%TO.N,/col6*%
X120875000Y-119000000D03*
%TD*%
%TO.P,D56,1,K*%
%TO.N,row6*%
X127125000Y-122000000D03*
%TO.P,D56,2,A*%
%TO.N,/col7*%
X128875000Y-122000000D03*
%TD*%
%TO.P,D9,1,K*%
%TO.N,row1*%
X107125000Y-101000000D03*
%TO.P,D9,2,A*%
%TO.N,/col0*%
X108875000Y-101000000D03*
%TD*%
%TO.P,D42,1,K*%
%TO.N,row5*%
X123125000Y-104000000D03*
%TO.P,D42,2,A*%
%TO.N,/col1*%
X124875000Y-104000000D03*
%TD*%
%TO.P,D45,1,K*%
%TO.N,row5*%
X123125000Y-113000000D03*
%TO.P,D45,2,A*%
%TO.N,/col4*%
X124875000Y-113000000D03*
%TD*%
%TO.P,D61,1,K*%
%TO.N,row7*%
X131125000Y-113000000D03*
%TO.P,D61,2,A*%
%TO.N,/col4*%
X132875000Y-113000000D03*
%TD*%
D11*
%TO.P,R7,1*%
%TO.N,com6*%
X98112500Y-119000000D03*
%TO.P,R7,2*%
%TO.N,/col6*%
X99937500Y-119000000D03*
%TD*%
D12*
%TO.P,J1,1,Pin_1*%
%TO.N,Net-(J1-Pin_1)*%
X185000000Y-114000000D03*
D13*
%TO.P,J1,2,Pin_2*%
%TO.N,Net-(J1-Pin_2)*%
X185000000Y-116540000D03*
%TO.P,J1,3,Pin_3*%
%TO.N,Net-(J1-Pin_3)*%
X185000000Y-119080000D03*
%TO.P,J1,4,Pin_4*%
%TO.N,Net-(J1-Pin_4)*%
X185000000Y-121620000D03*
%TD*%
D10*
%TO.P,D100,1,K*%
%TO.N,row12*%
X151125000Y-110000000D03*
%TO.P,D100,2,A*%
%TO.N,/col3*%
X152875000Y-110000000D03*
%TD*%
D11*
%TO.P,R4,1*%
%TO.N,com3*%
X98112500Y-110000000D03*
%TO.P,R4,2*%
%TO.N,/col3*%
X99937500Y-110000000D03*
%TD*%
D10*
%TO.P,D7,1,K*%
%TO.N,row0*%
X103150000Y-119000000D03*
%TO.P,D7,2,A*%
%TO.N,/col6*%
X104900000Y-119000000D03*
%TD*%
%TO.P,D102,1,K*%
%TO.N,row12*%
X151125000Y-116000000D03*
%TO.P,D102,2,A*%
%TO.N,/col5*%
X152875000Y-116000000D03*
%TD*%
%TO.P,D34,1,K*%
%TO.N,row4*%
X119125000Y-104000000D03*
%TO.P,D34,2,A*%
%TO.N,/col1*%
X120875000Y-104000000D03*
%TD*%
%TO.P,D118,1,K*%
%TO.N,row14*%
X159125000Y-116000000D03*
%TO.P,D118,2,A*%
%TO.N,/col5*%
X160875000Y-116000000D03*
%TD*%
%TO.P,D57,1,K*%
%TO.N,row7*%
X131125000Y-101000000D03*
%TO.P,D57,2,A*%
%TO.N,/col0*%
X132875000Y-101000000D03*
%TD*%
%TO.P,D37,1,K*%
%TO.N,row4*%
X119125000Y-113000000D03*
%TO.P,D37,2,A*%
%TO.N,/col4*%
X120875000Y-113000000D03*
%TD*%
%TO.P,D78,1,K*%
%TO.N,row9*%
X139125000Y-116000000D03*
%TO.P,D78,2,A*%
%TO.N,/col5*%
X140875000Y-116000000D03*
%TD*%
%TO.P,D84,1,K*%
%TO.N,row10*%
X143125000Y-110000000D03*
%TO.P,D84,2,A*%
%TO.N,/col3*%
X144875000Y-110000000D03*
%TD*%
%TO.P,D2,1,K*%
%TO.N,row0*%
X103150000Y-104000000D03*
%TO.P,D2,2,A*%
%TO.N,/col1*%
X104900000Y-104000000D03*
%TD*%
D14*
%TO.P,C2,1*%
%TO.N,Net-(J1-Pin_2)*%
X170137500Y-102000000D03*
%TO.P,C2,2*%
%TO.N,Net-(IC1-VSS)*%
X171862500Y-102000000D03*
%TD*%
D10*
%TO.P,D59,1,K*%
%TO.N,row7*%
X131125000Y-107000000D03*
%TO.P,D59,2,A*%
%TO.N,/col2*%
X132875000Y-107000000D03*
%TD*%
%TO.P,D90,1,K*%
%TO.N,row11*%
X147125000Y-104000000D03*
%TO.P,D90,2,A*%
%TO.N,/col1*%
X148875000Y-104000000D03*
%TD*%
%TO.P,D49,1,K*%
%TO.N,row6*%
X127125000Y-101000000D03*
%TO.P,D49,2,A*%
%TO.N,/col0*%
X128875000Y-101000000D03*
%TD*%
%TO.P,D17,1,K*%
%TO.N,row2*%
X111125000Y-101000000D03*
%TO.P,D17,2,A*%
%TO.N,/col0*%
X112875000Y-101000000D03*
%TD*%
%TO.P,D36,1,K*%
%TO.N,row4*%
X119125000Y-110000000D03*
%TO.P,D36,2,A*%
%TO.N,/col3*%
X120875000Y-110000000D03*
%TD*%
%TO.P,D97,1,K*%
%TO.N,row12*%
X151125000Y-101000000D03*
%TO.P,D97,2,A*%
%TO.N,/col0*%
X152875000Y-101000000D03*
%TD*%
%TO.P,D109,1,K*%
%TO.N,row13*%
X155125000Y-113000000D03*
%TO.P,D109,2,A*%
%TO.N,/col4*%
X156875000Y-113000000D03*
%TD*%
%TO.P,D114,1,K*%
%TO.N,row14*%
X159125000Y-104000000D03*
%TO.P,D114,2,A*%
%TO.N,/col1*%
X160875000Y-104000000D03*
%TD*%
%TO.P,D43,1,K*%
%TO.N,row5*%
X123125000Y-107000000D03*
%TO.P,D43,2,A*%
%TO.N,/col2*%
X124875000Y-107000000D03*
%TD*%
%TO.P,D89,1,K*%
%TO.N,row11*%
X147125000Y-101000000D03*
%TO.P,D89,2,A*%
%TO.N,/col0*%
X148875000Y-101000000D03*
%TD*%
%TO.P,D74,1,K*%
%TO.N,row9*%
X139125000Y-104000000D03*
%TO.P,D74,2,A*%
%TO.N,/col1*%
X140875000Y-104000000D03*
%TD*%
%TO.P,D103,1,K*%
%TO.N,row12*%
X151125000Y-119000000D03*
%TO.P,D103,2,A*%
%TO.N,/col6*%
X152875000Y-119000000D03*
%TD*%
%TO.P,D86,1,K*%
%TO.N,row10*%
X143125000Y-116000000D03*
%TO.P,D86,2,A*%
%TO.N,/col5*%
X144875000Y-116000000D03*
%TD*%
%TO.P,D24,1,K*%
%TO.N,row2*%
X111125000Y-122000000D03*
%TO.P,D24,2,A*%
%TO.N,/col7*%
X112875000Y-122000000D03*
%TD*%
%TO.P,D46,1,K*%
%TO.N,row5*%
X123125000Y-116000000D03*
%TO.P,D46,2,A*%
%TO.N,/col5*%
X124875000Y-116000000D03*
%TD*%
D11*
%TO.P,R9,1*%
%TO.N,Net-(IC1-SDA)*%
X185087500Y-103000000D03*
%TO.P,R9,2*%
%TO.N,Net-(J1-Pin_3)*%
X186912500Y-103000000D03*
%TD*%
D10*
%TO.P,D5,1,K*%
%TO.N,row0*%
X103150000Y-113000000D03*
%TO.P,D5,2,A*%
%TO.N,/col4*%
X104900000Y-113000000D03*
%TD*%
%TO.P,D117,1,K*%
%TO.N,row14*%
X159125000Y-113000000D03*
%TO.P,D117,2,A*%
%TO.N,/col4*%
X160875000Y-113000000D03*
%TD*%
%TO.P,D68,1,K*%
%TO.N,row8*%
X135125000Y-110000000D03*
%TO.P,D68,2,A*%
%TO.N,/col3*%
X136875000Y-110000000D03*
%TD*%
%TO.P,D32,1,K*%
%TO.N,row3*%
X115125000Y-122000000D03*
%TO.P,D32,2,A*%
%TO.N,/col7*%
X116875000Y-122000000D03*
%TD*%
%TO.P,D23,1,K*%
%TO.N,row2*%
X111125000Y-119000000D03*
%TO.P,D23,2,A*%
%TO.N,/col6*%
X112875000Y-119000000D03*
%TD*%
%TO.P,D16,1,K*%
%TO.N,row1*%
X107125000Y-122000000D03*
%TO.P,D16,2,A*%
%TO.N,/col7*%
X108875000Y-122000000D03*
%TD*%
%TO.P,D101,1,K*%
%TO.N,row12*%
X151125000Y-113000000D03*
%TO.P,D101,2,A*%
%TO.N,/col4*%
X152875000Y-113000000D03*
%TD*%
%TO.P,D53,1,K*%
%TO.N,row6*%
X127125000Y-113000000D03*
%TO.P,D53,2,A*%
%TO.N,/col4*%
X128875000Y-113000000D03*
%TD*%
%TO.P,D123,1,K*%
%TO.N,row15*%
X163125000Y-107000000D03*
%TO.P,D123,2,A*%
%TO.N,/col2*%
X164875000Y-107000000D03*
%TD*%
%TO.P,D67,1,K*%
%TO.N,row8*%
X135125000Y-107000000D03*
%TO.P,D67,2,A*%
%TO.N,/col2*%
X136875000Y-107000000D03*
%TD*%
%TO.P,D126,1,K*%
%TO.N,row15*%
X163125000Y-116000000D03*
%TO.P,D126,2,A*%
%TO.N,/col5*%
X164875000Y-116000000D03*
%TD*%
%TO.P,D60,1,K*%
%TO.N,row7*%
X131125000Y-110000000D03*
%TO.P,D60,2,A*%
%TO.N,/col3*%
X132875000Y-110000000D03*
%TD*%
%TO.P,D29,1,K*%
%TO.N,row3*%
X115125000Y-113000000D03*
%TO.P,D29,2,A*%
%TO.N,/col4*%
X116875000Y-113000000D03*
%TD*%
%TO.P,D115,1,K*%
%TO.N,row14*%
X159125000Y-107000000D03*
%TO.P,D115,2,A*%
%TO.N,/col2*%
X160875000Y-107000000D03*
%TD*%
%TO.P,D124,1,K*%
%TO.N,row15*%
X163125000Y-110000000D03*
%TO.P,D124,2,A*%
%TO.N,/col3*%
X164875000Y-110000000D03*
%TD*%
%TO.P,D69,1,K*%
%TO.N,row8*%
X135125000Y-113000000D03*
%TO.P,D69,2,A*%
%TO.N,/col4*%
X136875000Y-113000000D03*
%TD*%
%TO.P,D127,1,K*%
%TO.N,row15*%
X163125000Y-119000000D03*
%TO.P,D127,2,A*%
%TO.N,/col6*%
X164875000Y-119000000D03*
%TD*%
D14*
%TO.P,C1,1*%
%TO.N,Net-(IC1-VDD)*%
X182137500Y-101000000D03*
%TO.P,C1,2*%
%TO.N,Net-(J1-Pin_1)*%
X183862500Y-101000000D03*
%TD*%
D11*
%TO.P,R5,1*%
%TO.N,com4*%
X98112500Y-113000000D03*
%TO.P,R5,2*%
%TO.N,/col4*%
X99937500Y-113000000D03*
%TD*%
D10*
%TO.P,D31,1,K*%
%TO.N,row3*%
X115125000Y-119000000D03*
%TO.P,D31,2,A*%
%TO.N,/col6*%
X116875000Y-119000000D03*
%TD*%
%TO.P,D19,1,K*%
%TO.N,row2*%
X111125000Y-107000000D03*
%TO.P,D19,2,A*%
%TO.N,/col2*%
X112875000Y-107000000D03*
%TD*%
%TO.P,D83,1,K*%
%TO.N,row10*%
X143125000Y-107000000D03*
%TO.P,D83,2,A*%
%TO.N,/col2*%
X144875000Y-107000000D03*
%TD*%
%TO.P,D58,1,K*%
%TO.N,row7*%
X131125000Y-104000000D03*
%TO.P,D58,2,A*%
%TO.N,/col1*%
X132875000Y-104000000D03*
%TD*%
%TO.P,D108,1,K*%
%TO.N,row13*%
X155125000Y-110000000D03*
%TO.P,D108,2,A*%
%TO.N,/col3*%
X156875000Y-110000000D03*
%TD*%
%TO.P,D112,1,K*%
%TO.N,row13*%
X155125000Y-122000000D03*
%TO.P,D112,2,A*%
%TO.N,/col7*%
X156875000Y-122000000D03*
%TD*%
%TO.P,D88,1,K*%
%TO.N,row10*%
X143125000Y-122000000D03*
%TO.P,D88,2,A*%
%TO.N,/col7*%
X144875000Y-122000000D03*
%TD*%
%TO.P,D13,1,K*%
%TO.N,row1*%
X107125000Y-113000000D03*
%TO.P,D13,2,A*%
%TO.N,/col4*%
X108875000Y-113000000D03*
%TD*%
%TO.P,D62,1,K*%
%TO.N,row7*%
X131125000Y-116000000D03*
%TO.P,D62,2,A*%
%TO.N,/col5*%
X132875000Y-116000000D03*
%TD*%
D11*
%TO.P,R6,1*%
%TO.N,com5*%
X98112500Y-116000000D03*
%TO.P,R6,2*%
%TO.N,/col5*%
X99937500Y-116000000D03*
%TD*%
D10*
%TO.P,D21,1,K*%
%TO.N,row2*%
X111125000Y-113000000D03*
%TO.P,D21,2,A*%
%TO.N,/col4*%
X112875000Y-113000000D03*
%TD*%
%TO.P,D33,1,K*%
%TO.N,row4*%
X119125000Y-101000000D03*
%TO.P,D33,2,A*%
%TO.N,/col0*%
X120875000Y-101000000D03*
%TD*%
D11*
%TO.P,R8,1*%
%TO.N,com7*%
X98112500Y-122000000D03*
%TO.P,R8,2*%
%TO.N,/col7*%
X99937500Y-122000000D03*
%TD*%
D10*
%TO.P,D120,1,K*%
%TO.N,row14*%
X159125000Y-122000000D03*
%TO.P,D120,2,A*%
%TO.N,/col7*%
X160875000Y-122000000D03*
%TD*%
%TO.P,D116,1,K*%
%TO.N,row14*%
X159125000Y-110000000D03*
%TO.P,D116,2,A*%
%TO.N,/col3*%
X160875000Y-110000000D03*
%TD*%
%TO.P,D81,1,K*%
%TO.N,row10*%
X143125000Y-101000000D03*
%TO.P,D81,2,A*%
%TO.N,/col0*%
X144875000Y-101000000D03*
%TD*%
%TO.P,D76,1,K*%
%TO.N,row9*%
X139125000Y-110000000D03*
%TO.P,D76,2,A*%
%TO.N,/col3*%
X140875000Y-110000000D03*
%TD*%
%TO.P,D51,1,K*%
%TO.N,row6*%
X127125000Y-107000000D03*
%TO.P,D51,2,A*%
%TO.N,/col2*%
X128875000Y-107000000D03*
%TD*%
D11*
%TO.P,R3,1*%
%TO.N,com2*%
X98112500Y-107000000D03*
%TO.P,R3,2*%
%TO.N,/col2*%
X99937500Y-107000000D03*
%TD*%
D10*
%TO.P,D119,1,K*%
%TO.N,row14*%
X159125000Y-119000000D03*
%TO.P,D119,2,A*%
%TO.N,/col6*%
X160875000Y-119000000D03*
%TD*%
%TO.P,D4,1,K*%
%TO.N,row0*%
X103150000Y-110000000D03*
%TO.P,D4,2,A*%
%TO.N,/col3*%
X104900000Y-110000000D03*
%TD*%
%TO.P,D85,1,K*%
%TO.N,row10*%
X143125000Y-113000000D03*
%TO.P,D85,2,A*%
%TO.N,/col4*%
X144875000Y-113000000D03*
%TD*%
%TO.P,D128,1,K*%
%TO.N,row15*%
X163125000Y-122000000D03*
%TO.P,D128,2,A*%
%TO.N,/col7*%
X164875000Y-122000000D03*
%TD*%
%TO.P,D113,1,K*%
%TO.N,row14*%
X159125000Y-101000000D03*
%TO.P,D113,2,A*%
%TO.N,/col0*%
X160875000Y-101000000D03*
%TD*%
%TO.P,D22,1,K*%
%TO.N,row2*%
X111125000Y-116000000D03*
%TO.P,D22,2,A*%
%TO.N,/col5*%
X112875000Y-116000000D03*
%TD*%
%TO.P,D47,1,K*%
%TO.N,row5*%
X123125000Y-119000000D03*
%TO.P,D47,2,A*%
%TO.N,/col6*%
X124875000Y-119000000D03*
%TD*%
%TO.P,D30,1,K*%
%TO.N,row3*%
X115125000Y-116000000D03*
%TO.P,D30,2,A*%
%TO.N,/col5*%
X116875000Y-116000000D03*
%TD*%
%TO.P,D38,1,K*%
%TO.N,row4*%
X119125000Y-116000000D03*
%TO.P,D38,2,A*%
%TO.N,/col5*%
X120875000Y-116000000D03*
%TD*%
D11*
%TO.P,R10,1*%
%TO.N,Net-(IC1-SCL)*%
X185087500Y-106000000D03*
%TO.P,R10,2*%
%TO.N,Net-(J1-Pin_4)*%
X186912500Y-106000000D03*
%TD*%
D10*
%TO.P,D40,1,K*%
%TO.N,row4*%
X119125000Y-122000000D03*
%TO.P,D40,2,A*%
%TO.N,/col7*%
X120875000Y-122000000D03*
%TD*%
%TO.P,D79,1,K*%
%TO.N,row9*%
X139125000Y-119000000D03*
%TO.P,D79,2,A*%
%TO.N,/col6*%
X140875000Y-119000000D03*
%TD*%
%TO.P,D111,1,K*%
%TO.N,row13*%
X155125000Y-119000000D03*
%TO.P,D111,2,A*%
%TO.N,/col6*%
X156875000Y-119000000D03*
%TD*%
%TO.P,D64,1,K*%
%TO.N,row7*%
X131125000Y-122000000D03*
%TO.P,D64,2,A*%
%TO.N,/col7*%
X132875000Y-122000000D03*
%TD*%
%TO.P,D93,1,K*%
%TO.N,row11*%
X147125000Y-113000000D03*
%TO.P,D93,2,A*%
%TO.N,/col4*%
X148875000Y-113000000D03*
%TD*%
%TO.P,D48,1,K*%
%TO.N,row5*%
X123125000Y-122000000D03*
%TO.P,D48,2,A*%
%TO.N,/col7*%
X124875000Y-122000000D03*
%TD*%
%TO.P,D26,1,K*%
%TO.N,row3*%
X115125000Y-104000000D03*
%TO.P,D26,2,A*%
%TO.N,/col1*%
X116875000Y-104000000D03*
%TD*%
%TO.P,D71,1,K*%
%TO.N,row8*%
X135125000Y-119000000D03*
%TO.P,D71,2,A*%
%TO.N,/col6*%
X136875000Y-119000000D03*
%TD*%
%TO.P,D95,1,K*%
%TO.N,row11*%
X147125000Y-119000000D03*
%TO.P,D95,2,A*%
%TO.N,/col6*%
X148875000Y-119000000D03*
%TD*%
%TO.P,D96,1,K*%
%TO.N,row11*%
X147125000Y-122000000D03*
%TO.P,D96,2,A*%
%TO.N,/col7*%
X148875000Y-122000000D03*
%TD*%
%TO.P,D125,1,K*%
%TO.N,row15*%
X163125000Y-113000000D03*
%TO.P,D125,2,A*%
%TO.N,/col4*%
X164875000Y-113000000D03*
%TD*%
%TO.P,D107,1,K*%
%TO.N,row13*%
X155125000Y-107000000D03*
%TO.P,D107,2,A*%
%TO.N,/col2*%
X156875000Y-107000000D03*
%TD*%
%TO.P,D82,1,K*%
%TO.N,row10*%
X143125000Y-104000000D03*
%TO.P,D82,2,A*%
%TO.N,/col1*%
X144875000Y-104000000D03*
%TD*%
%TO.P,D3,1,K*%
%TO.N,row0*%
X103150000Y-107000000D03*
%TO.P,D3,2,A*%
%TO.N,/col2*%
X104900000Y-107000000D03*
%TD*%
D15*
%TO.P,IC1,1,VSS*%
%TO.N,Net-(IC1-VSS)*%
X174300000Y-101872000D03*
%TO.P,IC1,2,COM0/AD*%
%TO.N,com0*%
X174300000Y-102508000D03*
%TO.P,IC1,3,COM1/KS0*%
%TO.N,com1*%
X174300000Y-103142000D03*
%TO.P,IC1,4,COM2/KS1*%
%TO.N,com2*%
X174300000Y-103778000D03*
%TO.P,IC1,5,COM3/KS2*%
%TO.N,com3*%
X174300000Y-104412000D03*
%TO.P,IC1,6,COM4*%
%TO.N,com4*%
X174300000Y-105048000D03*
%TO.P,IC1,7,COM5*%
%TO.N,com5*%
X174300000Y-105682000D03*
%TO.P,IC1,8,COM6*%
%TO.N,com6*%
X174300000Y-106318000D03*
%TO.P,IC1,9,COM7*%
%TO.N,com7*%
X174300000Y-106952000D03*
%TO.P,IC1,10,ROW15/K13/INT*%
%TO.N,row15*%
X174300000Y-107588000D03*
%TO.P,IC1,11,ROW14/K12*%
%TO.N,row14*%
X174300000Y-108222000D03*
%TO.P,IC1,12,ROW13/K11*%
%TO.N,row13*%
X174300000Y-108858000D03*
%TO.P,IC1,13,ROW12/K10*%
%TO.N,row12*%
X174300000Y-109492000D03*
%TO.P,IC1,14,ROW11/K9*%
%TO.N,row11*%
X174300000Y-110128000D03*
%TO.P,IC1,15,ROW10/K8*%
%TO.N,row10*%
X179700000Y-110128000D03*
%TO.P,IC1,16,ROW9/K7*%
%TO.N,row9*%
X179700000Y-109492000D03*
%TO.P,IC1,17,ROW8/K6*%
%TO.N,row8*%
X179700000Y-108858000D03*
%TO.P,IC1,18,ROW7/K5*%
%TO.N,row7*%
X179700000Y-108222000D03*
%TO.P,IC1,19,ROW6/K4*%
%TO.N,row6*%
X179700000Y-107588000D03*
%TO.P,IC1,20,ROW5/K3*%
%TO.N,row5*%
X179700000Y-106952000D03*
%TO.P,IC1,21,ROW4/K2*%
%TO.N,row4*%
X179700000Y-106318000D03*
%TO.P,IC1,22,ROW3/K1*%
%TO.N,row3*%
X179700000Y-105682000D03*
%TO.P,IC1,23,ROW2/A0*%
%TO.N,row2*%
X179700000Y-105048000D03*
%TO.P,IC1,24,ROW1/A1*%
%TO.N,row1*%
X179700000Y-104412000D03*
%TO.P,IC1,25,ROW0/A2*%
%TO.N,row0*%
X179700000Y-103778000D03*
%TO.P,IC1,26,SCL*%
%TO.N,Net-(IC1-SCL)*%
X179700000Y-103142000D03*
%TO.P,IC1,27,SDA*%
%TO.N,Net-(IC1-SDA)*%
X179700000Y-102508000D03*
%TO.P,IC1,28,VDD*%
%TO.N,Net-(IC1-VDD)*%
X179700000Y-101872000D03*
%TD*%
D10*
%TO.P,D99,1,K*%
%TO.N,row12*%
X151125000Y-107000000D03*
%TO.P,D99,2,A*%
%TO.N,/col2*%
X152875000Y-107000000D03*
%TD*%
%TO.P,D18,1,K*%
%TO.N,row2*%
X111125000Y-104000000D03*
%TO.P,D18,2,A*%
%TO.N,/col1*%
X112875000Y-104000000D03*
%TD*%
%TO.P,D20,1,K*%
%TO.N,row2*%
X111125000Y-110000000D03*
%TO.P,D20,2,A*%
%TO.N,/col3*%
X112875000Y-110000000D03*
%TD*%
%TO.P,D63,1,K*%
%TO.N,row7*%
X131125000Y-119000000D03*
%TO.P,D63,2,A*%
%TO.N,/col6*%
X132875000Y-119000000D03*
%TD*%
%TO.P,D35,1,K*%
%TO.N,row4*%
X119125000Y-107000000D03*
%TO.P,D35,2,A*%
%TO.N,/col2*%
X120875000Y-107000000D03*
%TD*%
%TO.P,D80,1,K*%
%TO.N,row9*%
X139125000Y-122000000D03*
%TO.P,D80,2,A*%
%TO.N,/col7*%
X140875000Y-122000000D03*
%TD*%
%TO.P,D12,1,K*%
%TO.N,row1*%
X107125000Y-110000000D03*
%TO.P,D12,2,A*%
%TO.N,/col3*%
X108875000Y-110000000D03*
%TD*%
D11*
%TO.P,R1,1*%
%TO.N,com0*%
X98112500Y-101000000D03*
%TO.P,R1,2*%
%TO.N,/col0*%
X99937500Y-101000000D03*
%TD*%
D10*
%TO.P,D52,1,K*%
%TO.N,row6*%
X127125000Y-110000000D03*
%TO.P,D52,2,A*%
%TO.N,/col3*%
X128875000Y-110000000D03*
%TD*%
%TO.P,D66,1,K*%
%TO.N,row8*%
X135125000Y-104000000D03*
%TO.P,D66,2,A*%
%TO.N,/col1*%
X136875000Y-104000000D03*
%TD*%
%TO.P,D15,1,K*%
%TO.N,row1*%
X107125000Y-119000000D03*
%TO.P,D15,2,A*%
%TO.N,/col6*%
X108875000Y-119000000D03*
%TD*%
%TO.P,D14,1,K*%
%TO.N,row1*%
X107125000Y-116000000D03*
%TO.P,D14,2,A*%
%TO.N,/col5*%
X108875000Y-116000000D03*
%TD*%
%TO.P,D55,1,K*%
%TO.N,row6*%
X127125000Y-119000000D03*
%TO.P,D55,2,A*%
%TO.N,/col6*%
X128875000Y-119000000D03*
%TD*%
%TO.P,D44,1,K*%
%TO.N,row5*%
X123125000Y-110000000D03*
%TO.P,D44,2,A*%
%TO.N,/col3*%
X124875000Y-110000000D03*
%TD*%
%TO.P,D77,1,K*%
%TO.N,row9*%
X139125000Y-113000000D03*
%TO.P,D77,2,A*%
%TO.N,/col4*%
X140875000Y-113000000D03*
%TD*%
%TO.P,D104,1,K*%
%TO.N,row12*%
X151125000Y-122000000D03*
%TO.P,D104,2,A*%
%TO.N,/col7*%
X152875000Y-122000000D03*
%TD*%
%TO.P,D122,1,K*%
%TO.N,row15*%
X163125000Y-104000000D03*
%TO.P,D122,2,A*%
%TO.N,/col1*%
X164875000Y-104000000D03*
%TD*%
%TO.P,D54,1,K*%
%TO.N,row6*%
X127125000Y-116000000D03*
%TO.P,D54,2,A*%
%TO.N,/col5*%
X128875000Y-116000000D03*
%TD*%
%TO.P,D8,1,K*%
%TO.N,row0*%
X103150000Y-122000000D03*
%TO.P,D8,2,A*%
%TO.N,/col7*%
X104900000Y-122000000D03*
%TD*%
%TO.P,D41,1,K*%
%TO.N,row5*%
X123125000Y-101000000D03*
%TO.P,D41,2,A*%
%TO.N,/col0*%
X124875000Y-101000000D03*
%TD*%
%TO.P,D87,1,K*%
%TO.N,row10*%
X143125000Y-119000000D03*
%TO.P,D87,2,A*%
%TO.N,/col6*%
X144875000Y-119000000D03*
%TD*%
%TO.P,D27,1,K*%
%TO.N,row3*%
X115125000Y-107000000D03*
%TO.P,D27,2,A*%
%TO.N,/col2*%
X116875000Y-107000000D03*
%TD*%
%TO.P,D106,1,K*%
%TO.N,row13*%
X155125000Y-104000000D03*
%TO.P,D106,2,A*%
%TO.N,/col1*%
X156875000Y-104000000D03*
%TD*%
%TO.P,D6,1,K*%
%TO.N,row0*%
X103150000Y-116000000D03*
%TO.P,D6,2,A*%
%TO.N,/col5*%
X104900000Y-116000000D03*
%TD*%
%TO.P,D25,1,K*%
%TO.N,row3*%
X115125000Y-101000000D03*
%TO.P,D25,2,A*%
%TO.N,/col0*%
X116875000Y-101000000D03*
%TD*%
%TO.P,D1,1,K*%
%TO.N,row0*%
X103150000Y-101000000D03*
%TO.P,D1,2,A*%
%TO.N,/col0*%
X104900000Y-101000000D03*
%TD*%
%TO.P,D121,1,K*%
%TO.N,row15*%
X163125000Y-101000000D03*
%TO.P,D121,2,A*%
%TO.N,/col0*%
X164875000Y-101000000D03*
%TD*%
%TO.P,D72,1,K*%
%TO.N,row8*%
X135125000Y-122000000D03*
%TO.P,D72,2,A*%
%TO.N,/col7*%
X136875000Y-122000000D03*
%TD*%
%TO.P,D70,1,K*%
%TO.N,row8*%
X135125000Y-116000000D03*
%TO.P,D70,2,A*%
%TO.N,/col5*%
X136875000Y-116000000D03*
%TD*%
%TO.P,D75,1,K*%
%TO.N,row9*%
X139125000Y-107000000D03*
%TO.P,D75,2,A*%
%TO.N,/col2*%
X140875000Y-107000000D03*
%TD*%
%TO.P,D94,1,K*%
%TO.N,row11*%
X147125000Y-116000000D03*
%TO.P,D94,2,A*%
%TO.N,/col5*%
X148875000Y-116000000D03*
%TD*%
%TO.P,D98,1,K*%
%TO.N,row12*%
X151125000Y-104000000D03*
%TO.P,D98,2,A*%
%TO.N,/col1*%
X152875000Y-104000000D03*
%TD*%
D16*
%TO.N,Net-(J1-Pin_2)*%
X189000000Y-98000000D03*
%TO.N,row0*%
X101950000Y-113000000D03*
X101950000Y-119000000D03*
X101950000Y-110000000D03*
X183000000Y-105000000D03*
X101950000Y-101000000D03*
X101950000Y-107000000D03*
X101950000Y-104000000D03*
X101950000Y-116000000D03*
X101950000Y-122000000D03*
%TO.N,row1*%
X105975000Y-101000000D03*
X105975000Y-116000000D03*
X105975000Y-104000000D03*
X105975000Y-107000000D03*
X105975000Y-113000000D03*
X105975000Y-110000000D03*
X105975000Y-119000000D03*
X105975000Y-122000000D03*
X183000000Y-106000000D03*
%TO.N,row2*%
X109925000Y-122000000D03*
X109925000Y-104000000D03*
X109925000Y-107000000D03*
X109925000Y-116000000D03*
X109925000Y-119000000D03*
X109925000Y-113000000D03*
X184000000Y-107000000D03*
X109925000Y-101000000D03*
X109925000Y-110000000D03*
%TO.N,row3*%
X185000000Y-107000000D03*
X113950000Y-101000000D03*
X113950000Y-119000000D03*
X113950000Y-116000000D03*
X113950000Y-113000000D03*
X113950000Y-107000000D03*
X113950000Y-122000000D03*
X113950000Y-110000000D03*
X113950000Y-104000000D03*
%TO.N,row4*%
X117950000Y-110000000D03*
X117950000Y-107000000D03*
X117950000Y-116000000D03*
X117950000Y-101000000D03*
X117950000Y-113000000D03*
X117950000Y-104000000D03*
X186000000Y-107000000D03*
X117950000Y-122000000D03*
X117950000Y-119000000D03*
%TO.N,row5*%
X121975000Y-122000000D03*
X121975000Y-116000000D03*
X121975000Y-119000000D03*
X121975000Y-113000000D03*
X121975000Y-101000000D03*
X121975000Y-104000000D03*
X187000000Y-107000000D03*
X121975000Y-110000000D03*
X121975000Y-107000000D03*
%TO.N,row6*%
X125925000Y-119000000D03*
X125925000Y-122000000D03*
X125925000Y-104000000D03*
X187000000Y-108000000D03*
X125925000Y-110000000D03*
X125925000Y-116000000D03*
X125925000Y-113000000D03*
X125925000Y-107000000D03*
X125925000Y-101000000D03*
%TO.N,row7*%
X129950000Y-113000000D03*
X129950000Y-101000000D03*
X129950000Y-119000000D03*
X129950000Y-104000000D03*
X129950000Y-122000000D03*
X129950000Y-110000000D03*
X129950000Y-107000000D03*
X129950000Y-116000000D03*
X188000000Y-108000000D03*
%TO.N,row8*%
X186000000Y-110000000D03*
X134000000Y-122000000D03*
X134000000Y-107000000D03*
X134000000Y-110000000D03*
X134000000Y-119000000D03*
X134000000Y-104000000D03*
X134000000Y-116000000D03*
X134000000Y-113000000D03*
X134000000Y-101000000D03*
%TO.N,row9*%
X138025000Y-101000000D03*
X138025000Y-104000000D03*
X138025000Y-116000000D03*
X138025000Y-119000000D03*
X138025000Y-113000000D03*
X138025000Y-122000000D03*
X138025000Y-107000000D03*
X138025000Y-110000000D03*
X181000000Y-113000000D03*
%TO.N,row10*%
X141975000Y-119000000D03*
X141975000Y-122000000D03*
X141975000Y-104000000D03*
X141975000Y-107000000D03*
X141975000Y-110000000D03*
X141975000Y-116000000D03*
X141975000Y-113000000D03*
X141975000Y-101000000D03*
%TO.N,row11*%
X146000000Y-116000000D03*
X146000000Y-104000000D03*
X146000000Y-110000000D03*
X146000000Y-119000000D03*
X146000000Y-101000000D03*
X146000000Y-107000000D03*
X179000000Y-118000000D03*
X146000000Y-113000000D03*
X146000000Y-122000000D03*
%TO.N,row12*%
X150000000Y-113000000D03*
X150000000Y-101000000D03*
X150000000Y-119000000D03*
X150000000Y-122000000D03*
X150000000Y-104000000D03*
X150000000Y-107000000D03*
X178000000Y-116000000D03*
X150000000Y-116000000D03*
X150000000Y-110000000D03*
%TO.N,row13*%
X154025000Y-113000000D03*
X177000000Y-112000000D03*
X154025000Y-119000000D03*
X154025000Y-122000000D03*
X154025000Y-101000000D03*
X154025000Y-110000000D03*
X154025000Y-107000000D03*
X154025000Y-116000000D03*
X154025000Y-104000000D03*
%TO.N,row14*%
X157975000Y-113000000D03*
X157975000Y-101000000D03*
X157975000Y-107000000D03*
X157975000Y-116000000D03*
X174000000Y-113000000D03*
X157975000Y-122000000D03*
X157975000Y-110000000D03*
X157975000Y-119000000D03*
X157975000Y-104000000D03*
%TO.N,row15*%
X162000000Y-113000000D03*
X173000000Y-113000000D03*
X162000000Y-119000000D03*
X162000000Y-104000000D03*
X162000000Y-116000000D03*
X162000000Y-107000000D03*
X162000000Y-101000000D03*
X162000000Y-122000000D03*
X162000000Y-110000000D03*
%TO.N,com2*%
X92000000Y-93000000D03*
X97000000Y-107000000D03*
%TO.N,com5*%
X97000000Y-116000000D03*
X92000000Y-96000000D03*
%TO.N,com7*%
X97000000Y-122000000D03*
X92000000Y-98000000D03*
%TO.N,com1*%
X92000000Y-92000000D03*
X97000000Y-104000000D03*
%TO.N,com4*%
X97000000Y-113000000D03*
X92000000Y-95000000D03*
%TO.N,com3*%
X92000000Y-94000000D03*
X97000000Y-110000000D03*
%TO.N,com6*%
X92000000Y-97000000D03*
X97000000Y-119000000D03*
%TO.N,com0*%
X92000000Y-91000000D03*
X97000000Y-101000000D03*
%TD*%
D17*
%TO.N,Net-(IC1-VDD)*%
X180572000Y-101000000D02*
X179700000Y-101872000D01*
X182137500Y-101000000D02*
X180572000Y-101000000D01*
%TO.N,Net-(J1-Pin_1)*%
X189399000Y-101399000D02*
X189399000Y-109601000D01*
X183862500Y-101000000D02*
X189000000Y-101000000D01*
X189000000Y-101000000D02*
X189399000Y-101399000D01*
X189399000Y-109601000D02*
X185000000Y-114000000D01*
%TO.N,Net-(J1-Pin_2)*%
X170137500Y-102000000D02*
X174137500Y-98000000D01*
X174137500Y-98000000D02*
X189000000Y-98000000D01*
%TO.N,Net-(IC1-VSS)*%
X171862500Y-102000000D02*
X174172000Y-102000000D01*
X174172000Y-102000000D02*
X174300000Y-101872000D01*
%TO.N,/col0*%
X160199000Y-100324000D02*
X160875000Y-101000000D01*
X117551000Y-100324000D02*
X120199000Y-100324000D01*
X157551000Y-100324000D02*
X160199000Y-100324000D01*
X140199000Y-100324000D02*
X140875000Y-101000000D01*
X137551000Y-100324000D02*
X140199000Y-100324000D01*
X128199000Y-100324000D02*
X128875000Y-101000000D01*
X100613500Y-100324000D02*
X104224000Y-100324000D01*
X144199000Y-100324000D02*
X144875000Y-101000000D01*
X128875000Y-101000000D02*
X129551000Y-100324000D01*
X152875000Y-101000000D02*
X153551000Y-100324000D01*
X99937500Y-101000000D02*
X100613500Y-100324000D01*
X105576000Y-100324000D02*
X108199000Y-100324000D01*
X121551000Y-100324000D02*
X124199000Y-100324000D01*
X160875000Y-101000000D02*
X161551000Y-100324000D01*
X125551000Y-100324000D02*
X128199000Y-100324000D01*
X109551000Y-100324000D02*
X112199000Y-100324000D01*
X161551000Y-100324000D02*
X164199000Y-100324000D01*
X133551000Y-100324000D02*
X136199000Y-100324000D01*
X104900000Y-101000000D02*
X105576000Y-100324000D01*
X140875000Y-101000000D02*
X141551000Y-100324000D01*
X144875000Y-101000000D02*
X145551000Y-100324000D01*
X108875000Y-101000000D02*
X109551000Y-100324000D01*
X124199000Y-100324000D02*
X124875000Y-101000000D01*
X156199000Y-100324000D02*
X156875000Y-101000000D01*
X129551000Y-100324000D02*
X132199000Y-100324000D01*
X112199000Y-100324000D02*
X112875000Y-101000000D01*
X116199000Y-100324000D02*
X116875000Y-101000000D01*
X153551000Y-100324000D02*
X156199000Y-100324000D01*
X136875000Y-101000000D02*
X137551000Y-100324000D01*
X120199000Y-100324000D02*
X120875000Y-101000000D01*
X164199000Y-100324000D02*
X164875000Y-101000000D01*
X113551000Y-100324000D02*
X116199000Y-100324000D01*
X116875000Y-101000000D02*
X117551000Y-100324000D01*
X104224000Y-100324000D02*
X104900000Y-101000000D01*
X141551000Y-100324000D02*
X144199000Y-100324000D01*
X156875000Y-101000000D02*
X157551000Y-100324000D01*
X120875000Y-101000000D02*
X121551000Y-100324000D01*
X132199000Y-100324000D02*
X132875000Y-101000000D01*
X148875000Y-101000000D02*
X149551000Y-100324000D01*
X152199000Y-100324000D02*
X152875000Y-101000000D01*
X149551000Y-100324000D02*
X152199000Y-100324000D01*
X108199000Y-100324000D02*
X108875000Y-101000000D01*
X124875000Y-101000000D02*
X125551000Y-100324000D01*
X132875000Y-101000000D02*
X133551000Y-100324000D01*
X148199000Y-100324000D02*
X148875000Y-101000000D01*
X145551000Y-100324000D02*
X148199000Y-100324000D01*
X112875000Y-101000000D02*
X113551000Y-100324000D01*
X136199000Y-100324000D02*
X136875000Y-101000000D01*
%TO.N,row0*%
X103075000Y-107000000D02*
X101950000Y-107000000D01*
X103075000Y-104000000D02*
X101950000Y-104000000D01*
X103075000Y-122000000D02*
X101950000Y-122000000D01*
X101950000Y-113000000D02*
X103075000Y-113000000D01*
X103075000Y-116000000D02*
X101950000Y-116000000D01*
X181778000Y-103778000D02*
X183000000Y-105000000D01*
X103075000Y-119000000D02*
X101950000Y-119000000D01*
X179700000Y-103778000D02*
X181778000Y-103778000D01*
X103075000Y-110000000D02*
X101950000Y-110000000D01*
X103075000Y-101000000D02*
X101950000Y-101000000D01*
%TO.N,/col1*%
X99937500Y-104000000D02*
X100613500Y-103324000D01*
X140199000Y-103324000D02*
X140875000Y-104000000D01*
X109551000Y-103324000D02*
X112199000Y-103324000D01*
X141551000Y-103324000D02*
X144199000Y-103324000D01*
X152199000Y-103324000D02*
X152875000Y-104000000D01*
X129551000Y-103324000D02*
X132199000Y-103324000D01*
X156199000Y-103324000D02*
X156875000Y-104000000D01*
X149551000Y-103324000D02*
X152199000Y-103324000D01*
X120875000Y-104000000D02*
X121551000Y-103324000D01*
X125551000Y-103324000D02*
X128199000Y-103324000D01*
X121551000Y-103324000D02*
X124199000Y-103324000D01*
X116199000Y-103324000D02*
X116875000Y-104000000D01*
X137551000Y-103324000D02*
X140199000Y-103324000D01*
X153551000Y-103324000D02*
X156199000Y-103324000D01*
X160199000Y-103324000D02*
X160875000Y-104000000D01*
X145551000Y-103324000D02*
X148199000Y-103324000D01*
X144199000Y-103324000D02*
X144875000Y-104000000D01*
X161551000Y-103324000D02*
X164199000Y-103324000D01*
X100613500Y-103324000D02*
X104224000Y-103324000D01*
X157551000Y-103324000D02*
X160199000Y-103324000D01*
X116875000Y-104000000D02*
X117551000Y-103324000D01*
X113551000Y-103324000D02*
X116199000Y-103324000D01*
X124199000Y-103324000D02*
X124875000Y-104000000D01*
X156875000Y-104000000D02*
X157551000Y-103324000D01*
X152875000Y-104000000D02*
X153551000Y-103324000D01*
X108199000Y-103324000D02*
X105576000Y-103324000D01*
X132199000Y-103324000D02*
X132875000Y-104000000D01*
X108875000Y-104000000D02*
X109551000Y-103324000D01*
X117551000Y-103324000D02*
X120199000Y-103324000D01*
X104224000Y-103324000D02*
X104900000Y-104000000D01*
X112875000Y-104000000D02*
X113551000Y-103324000D01*
X148199000Y-103324000D02*
X148875000Y-104000000D01*
X108199000Y-103324000D02*
X108875000Y-104000000D01*
X120199000Y-103324000D02*
X120875000Y-104000000D01*
X128875000Y-104000000D02*
X129551000Y-103324000D01*
X132875000Y-104000000D02*
X133551000Y-103324000D01*
X133551000Y-103324000D02*
X136199000Y-103324000D01*
X124875000Y-104000000D02*
X125551000Y-103324000D01*
X144875000Y-104000000D02*
X145551000Y-103324000D01*
X160875000Y-104000000D02*
X161551000Y-103324000D01*
X104900000Y-104000000D02*
X105576000Y-103324000D01*
X148875000Y-104000000D02*
X149551000Y-103324000D01*
X112199000Y-103324000D02*
X112875000Y-104000000D01*
X164199000Y-103324000D02*
X164875000Y-104000000D01*
X136875000Y-104000000D02*
X137551000Y-103324000D01*
X140875000Y-104000000D02*
X141551000Y-103324000D01*
X136199000Y-103324000D02*
X136875000Y-104000000D01*
X128199000Y-103324000D02*
X128875000Y-104000000D01*
%TO.N,/col2*%
X149551000Y-106324000D02*
X152199000Y-106324000D01*
X116875000Y-107000000D02*
X117551000Y-106324000D01*
X128199000Y-106324000D02*
X128875000Y-107000000D01*
X105576000Y-106324000D02*
X108199000Y-106324000D01*
X144199000Y-106324000D02*
X144875000Y-107000000D01*
X141551000Y-106324000D02*
X144199000Y-106324000D01*
X160875000Y-107000000D02*
X161551000Y-106324000D01*
X108199000Y-106324000D02*
X108875000Y-107000000D01*
X156875000Y-107000000D02*
X157551000Y-106324000D01*
X116199000Y-106324000D02*
X116875000Y-107000000D01*
X129551000Y-106324000D02*
X132199000Y-106324000D01*
X156199000Y-106324000D02*
X156875000Y-107000000D01*
X99937500Y-107000000D02*
X100613500Y-106324000D01*
X132875000Y-107000000D02*
X133551000Y-106324000D01*
X104224000Y-106324000D02*
X104900000Y-107000000D01*
X160199000Y-106324000D02*
X160875000Y-107000000D01*
X124875000Y-107000000D02*
X125551000Y-106324000D01*
X125551000Y-106324000D02*
X128199000Y-106324000D01*
X157551000Y-106324000D02*
X160199000Y-106324000D01*
X124199000Y-106324000D02*
X124875000Y-107000000D01*
X148199000Y-106324000D02*
X148875000Y-107000000D01*
X136875000Y-107000000D02*
X137551000Y-106324000D01*
X121551000Y-106324000D02*
X124199000Y-106324000D01*
X112199000Y-106324000D02*
X112875000Y-107000000D01*
X132199000Y-106324000D02*
X132875000Y-107000000D01*
X112875000Y-107000000D02*
X113551000Y-106324000D01*
X137551000Y-106324000D02*
X140199000Y-106324000D01*
X136199000Y-106324000D02*
X136875000Y-107000000D01*
X140875000Y-107000000D02*
X141551000Y-106324000D01*
X109551000Y-106324000D02*
X112199000Y-106324000D01*
X120875000Y-107000000D02*
X121551000Y-106324000D01*
X145551000Y-106324000D02*
X148199000Y-106324000D01*
X148875000Y-107000000D02*
X149551000Y-106324000D01*
X100613500Y-106324000D02*
X104224000Y-106324000D01*
X133551000Y-106324000D02*
X136199000Y-106324000D01*
X140199000Y-106324000D02*
X140875000Y-107000000D01*
X152875000Y-107000000D02*
X153551000Y-106324000D01*
X152199000Y-106324000D02*
X152875000Y-107000000D01*
X117551000Y-106324000D02*
X120199000Y-106324000D01*
X164199000Y-106324000D02*
X164875000Y-107000000D01*
X128875000Y-107000000D02*
X129551000Y-106324000D01*
X144875000Y-107000000D02*
X145551000Y-106324000D01*
X113551000Y-106324000D02*
X116199000Y-106324000D01*
X161551000Y-106324000D02*
X164199000Y-106324000D01*
X108875000Y-107000000D02*
X109551000Y-106324000D01*
X153551000Y-106324000D02*
X156199000Y-106324000D01*
X104900000Y-107000000D02*
X105576000Y-106324000D01*
X120199000Y-106324000D02*
X120875000Y-107000000D01*
%TO.N,/col3*%
X152199000Y-109324000D02*
X152875000Y-110000000D01*
X148875000Y-110000000D02*
X149551000Y-109324000D01*
X128875000Y-110000000D02*
X129551000Y-109324000D01*
X129551000Y-109324000D02*
X132199000Y-109324000D01*
X160199000Y-109324000D02*
X160875000Y-110000000D01*
X99937500Y-110000000D02*
X100613500Y-109324000D01*
X160875000Y-110000000D02*
X161551000Y-109324000D01*
X140875000Y-110000000D02*
X141551000Y-109324000D01*
X120875000Y-110000000D02*
X121551000Y-109324000D01*
X116199000Y-109324000D02*
X116875000Y-110000000D01*
X125551000Y-109324000D02*
X128199000Y-109324000D01*
X137551000Y-109324000D02*
X140199000Y-109324000D01*
X132875000Y-110000000D02*
X133551000Y-109324000D01*
X144875000Y-110000000D02*
X145551000Y-109324000D01*
X148199000Y-109324000D02*
X148875000Y-110000000D01*
X108199000Y-109324000D02*
X105576000Y-109324000D01*
X144199000Y-109324000D02*
X144875000Y-110000000D01*
X161551000Y-109324000D02*
X164199000Y-109324000D01*
X156199000Y-109324000D02*
X156875000Y-110000000D01*
X136875000Y-110000000D02*
X137551000Y-109324000D01*
X121551000Y-109324000D02*
X124199000Y-109324000D01*
X116875000Y-110000000D02*
X117551000Y-109324000D01*
X120199000Y-109324000D02*
X120875000Y-110000000D01*
X112875000Y-110000000D02*
X113551000Y-109324000D01*
X156875000Y-110000000D02*
X157551000Y-109324000D01*
X128199000Y-109324000D02*
X128875000Y-110000000D01*
X140199000Y-109324000D02*
X140875000Y-110000000D01*
X113551000Y-109324000D02*
X116199000Y-109324000D01*
X153551000Y-109324000D02*
X156199000Y-109324000D01*
X133551000Y-109324000D02*
X136199000Y-109324000D01*
X117551000Y-109324000D02*
X120199000Y-109324000D01*
X141551000Y-109324000D02*
X144199000Y-109324000D01*
X132199000Y-109324000D02*
X132875000Y-110000000D01*
X124875000Y-110000000D02*
X125551000Y-109324000D01*
X157551000Y-109324000D02*
X160199000Y-109324000D01*
X149551000Y-109324000D02*
X152199000Y-109324000D01*
X108875000Y-110000000D02*
X109551000Y-109324000D01*
X104224000Y-109324000D02*
X104900000Y-110000000D01*
X109551000Y-109324000D02*
X112199000Y-109324000D01*
X104900000Y-110000000D02*
X105576000Y-109324000D01*
X145551000Y-109324000D02*
X148199000Y-109324000D01*
X124199000Y-109324000D02*
X124875000Y-110000000D01*
X112199000Y-109324000D02*
X112875000Y-110000000D01*
X164199000Y-109324000D02*
X164875000Y-110000000D01*
X100613500Y-109324000D02*
X104224000Y-109324000D01*
X152875000Y-110000000D02*
X153551000Y-109324000D01*
X136199000Y-109324000D02*
X136875000Y-110000000D01*
X108199000Y-109324000D02*
X108875000Y-110000000D01*
%TO.N,/col4*%
X117551000Y-112324000D02*
X120199000Y-112324000D01*
X120875000Y-113000000D02*
X121551000Y-112324000D01*
X161551000Y-112324000D02*
X164199000Y-112324000D01*
X120199000Y-112324000D02*
X120875000Y-113000000D01*
X112875000Y-113000000D02*
X113551000Y-112324000D01*
X129551000Y-112324000D02*
X132199000Y-112324000D01*
X152875000Y-113000000D02*
X153551000Y-112324000D01*
X140199000Y-112324000D02*
X140875000Y-113000000D01*
X153551000Y-112324000D02*
X156199000Y-112324000D01*
X144875000Y-113000000D02*
X145551000Y-112324000D01*
X104900000Y-113000000D02*
X105576000Y-112324000D01*
X113551000Y-112324000D02*
X116199000Y-112324000D01*
X105576000Y-112324000D02*
X108199000Y-112324000D01*
X136199000Y-112324000D02*
X136875000Y-113000000D01*
X149551000Y-112324000D02*
X152199000Y-112324000D01*
X133551000Y-112324000D02*
X136199000Y-112324000D01*
X109551000Y-112324000D02*
X112199000Y-112324000D01*
X108199000Y-112324000D02*
X108875000Y-113000000D01*
X148875000Y-113000000D02*
X149551000Y-112324000D01*
X124875000Y-113000000D02*
X125551000Y-112324000D01*
X128875000Y-113000000D02*
X129551000Y-112324000D01*
X144199000Y-112324000D02*
X144875000Y-113000000D01*
X132199000Y-112324000D02*
X132875000Y-113000000D01*
X141551000Y-112324000D02*
X144199000Y-112324000D01*
X116875000Y-113000000D02*
X117551000Y-112324000D01*
X160199000Y-112324000D02*
X160875000Y-113000000D01*
X121551000Y-112324000D02*
X124199000Y-112324000D01*
X132875000Y-113000000D02*
X133551000Y-112324000D01*
X104224000Y-112324000D02*
X104900000Y-113000000D01*
X116199000Y-112324000D02*
X116875000Y-113000000D01*
X157551000Y-112324000D02*
X160199000Y-112324000D01*
X156875000Y-113000000D02*
X157551000Y-112324000D01*
X100613500Y-112324000D02*
X104224000Y-112324000D01*
X136875000Y-113000000D02*
X137551000Y-112324000D01*
X152199000Y-112324000D02*
X152875000Y-113000000D01*
X125551000Y-112324000D02*
X128199000Y-112324000D01*
X137551000Y-112324000D02*
X140199000Y-112324000D01*
X145551000Y-112324000D02*
X148199000Y-112324000D01*
X99937500Y-113000000D02*
X100613500Y-112324000D01*
X156199000Y-112324000D02*
X156875000Y-113000000D01*
X128199000Y-112324000D02*
X128875000Y-113000000D01*
X112199000Y-112324000D02*
X112875000Y-113000000D01*
X124199000Y-112324000D02*
X124875000Y-113000000D01*
X164199000Y-112324000D02*
X164875000Y-113000000D01*
X160875000Y-113000000D02*
X161551000Y-112324000D01*
X140875000Y-113000000D02*
X141551000Y-112324000D01*
X148199000Y-112324000D02*
X148875000Y-113000000D01*
X108875000Y-113000000D02*
X109551000Y-112324000D01*
%TO.N,/col5*%
X133551000Y-115324000D02*
X136199000Y-115324000D01*
X141551000Y-115324000D02*
X144199000Y-115324000D01*
X116875000Y-116000000D02*
X117551000Y-115324000D01*
X125551000Y-115324000D02*
X128199000Y-115324000D01*
X157551000Y-115324000D02*
X160199000Y-115324000D01*
X152875000Y-116000000D02*
X153551000Y-115324000D01*
X129551000Y-115324000D02*
X132199000Y-115324000D01*
X100613500Y-115324000D02*
X104224000Y-115324000D01*
X132875000Y-116000000D02*
X133551000Y-115324000D01*
X109551000Y-115324000D02*
X112199000Y-115324000D01*
X140875000Y-116000000D02*
X141551000Y-115324000D01*
X160875000Y-116000000D02*
X161551000Y-115324000D01*
X108199000Y-115324000D02*
X108875000Y-116000000D01*
X117551000Y-115324000D02*
X120199000Y-115324000D01*
X156875000Y-116000000D02*
X157551000Y-115324000D01*
X148875000Y-116000000D02*
X149551000Y-115324000D01*
X160199000Y-115324000D02*
X160875000Y-116000000D01*
X116199000Y-115324000D02*
X116875000Y-116000000D01*
X136875000Y-116000000D02*
X137551000Y-115324000D01*
X148199000Y-115324000D02*
X148875000Y-116000000D01*
X128875000Y-116000000D02*
X129551000Y-115324000D01*
X121551000Y-115324000D02*
X124199000Y-115324000D01*
X164199000Y-115324000D02*
X164875000Y-116000000D01*
X108875000Y-116000000D02*
X109551000Y-115324000D01*
X124875000Y-116000000D02*
X125551000Y-115324000D01*
X136199000Y-115324000D02*
X136875000Y-116000000D01*
X152199000Y-115324000D02*
X152875000Y-116000000D01*
X156199000Y-115324000D02*
X156875000Y-116000000D01*
X161551000Y-115324000D02*
X164199000Y-115324000D01*
X104224000Y-115324000D02*
X104900000Y-116000000D01*
X108199000Y-115324000D02*
X105576000Y-115324000D01*
X112875000Y-116000000D02*
X113551000Y-115324000D01*
X149551000Y-115324000D02*
X152199000Y-115324000D01*
X104900000Y-116000000D02*
X105576000Y-115324000D01*
X144199000Y-115324000D02*
X144875000Y-116000000D01*
X145551000Y-115324000D02*
X148199000Y-115324000D01*
X153551000Y-115324000D02*
X156199000Y-115324000D01*
X144875000Y-116000000D02*
X145551000Y-115324000D01*
X120875000Y-116000000D02*
X121551000Y-115324000D01*
X113551000Y-115324000D02*
X116199000Y-115324000D01*
X140199000Y-115324000D02*
X140875000Y-116000000D01*
X99937500Y-116000000D02*
X100613500Y-115324000D01*
X137551000Y-115324000D02*
X140199000Y-115324000D01*
X120199000Y-115324000D02*
X120875000Y-116000000D01*
X124199000Y-115324000D02*
X124875000Y-116000000D01*
X128199000Y-115324000D02*
X128875000Y-116000000D01*
X132199000Y-115324000D02*
X132875000Y-116000000D01*
X112199000Y-115324000D02*
X112875000Y-116000000D01*
%TO.N,/col6*%
X145551000Y-118324000D02*
X148199000Y-118324000D01*
X156199000Y-118324000D02*
X156875000Y-119000000D01*
X157551000Y-118324000D02*
X160199000Y-118324000D01*
X136875000Y-119000000D02*
X137551000Y-118324000D01*
X128875000Y-119000000D02*
X129551000Y-118324000D01*
X148199000Y-118324000D02*
X148875000Y-119000000D01*
X129551000Y-118324000D02*
X132199000Y-118324000D01*
X104900000Y-119000000D02*
X105576000Y-118324000D01*
X116199000Y-118324000D02*
X116875000Y-119000000D01*
X124199000Y-118324000D02*
X124875000Y-119000000D01*
X152875000Y-119000000D02*
X153551000Y-118324000D01*
X112199000Y-118324000D02*
X112875000Y-119000000D01*
X160199000Y-118324000D02*
X160875000Y-119000000D01*
X133551000Y-118324000D02*
X136199000Y-118324000D01*
X140875000Y-119000000D02*
X141551000Y-118324000D01*
X99937500Y-119000000D02*
X100613500Y-118324000D01*
X120199000Y-118324000D02*
X120875000Y-119000000D01*
X153551000Y-118324000D02*
X156199000Y-118324000D01*
X137551000Y-118324000D02*
X140199000Y-118324000D01*
X121551000Y-118324000D02*
X124199000Y-118324000D01*
X120875000Y-119000000D02*
X121551000Y-118324000D01*
X160875000Y-119000000D02*
X161551000Y-118324000D01*
X152199000Y-118324000D02*
X152875000Y-119000000D01*
X113551000Y-118324000D02*
X116199000Y-118324000D01*
X148875000Y-119000000D02*
X149551000Y-118324000D01*
X125551000Y-118324000D02*
X128199000Y-118324000D01*
X128199000Y-118324000D02*
X128875000Y-119000000D01*
X109551000Y-118324000D02*
X112199000Y-118324000D01*
X132199000Y-118324000D02*
X132875000Y-119000000D01*
X100613500Y-118324000D02*
X104224000Y-118324000D01*
X149551000Y-118324000D02*
X152199000Y-118324000D01*
X141551000Y-118324000D02*
X144199000Y-118324000D01*
X108875000Y-119000000D02*
X109551000Y-118324000D01*
X117551000Y-118324000D02*
X120199000Y-118324000D01*
X144875000Y-119000000D02*
X145551000Y-118324000D01*
X132875000Y-119000000D02*
X133551000Y-118324000D01*
X136199000Y-118324000D02*
X136875000Y-119000000D01*
X140199000Y-118324000D02*
X140875000Y-119000000D01*
X108199000Y-118324000D02*
X105576000Y-118324000D01*
X104224000Y-118324000D02*
X104900000Y-119000000D01*
X112875000Y-119000000D02*
X113551000Y-118324000D01*
X116875000Y-119000000D02*
X117551000Y-118324000D01*
X144199000Y-118324000D02*
X144875000Y-119000000D01*
X124875000Y-119000000D02*
X125551000Y-118324000D01*
X164199000Y-118324000D02*
X164875000Y-119000000D01*
X161551000Y-118324000D02*
X164199000Y-118324000D01*
X156875000Y-119000000D02*
X157551000Y-118324000D01*
X108199000Y-118324000D02*
X108875000Y-119000000D01*
%TO.N,/col7*%
X112875000Y-122000000D02*
X113551000Y-121324000D01*
X157551000Y-121324000D02*
X160199000Y-121324000D01*
X108875000Y-122000000D02*
X109551000Y-121324000D01*
X144199000Y-121324000D02*
X144875000Y-122000000D01*
X100613500Y-121324000D02*
X104224000Y-121324000D01*
X136199000Y-121324000D02*
X136875000Y-122000000D01*
X148199000Y-121324000D02*
X148875000Y-122000000D01*
X152875000Y-122000000D02*
X153551000Y-121324000D01*
X121551000Y-121324000D02*
X124199000Y-121324000D01*
X161551000Y-121324000D02*
X164199000Y-121324000D01*
X132199000Y-121324000D02*
X132875000Y-122000000D01*
X125551000Y-121324000D02*
X128199000Y-121324000D01*
X148875000Y-122000000D02*
X149551000Y-121324000D01*
X116875000Y-122000000D02*
X117551000Y-121324000D01*
X140875000Y-122000000D02*
X141551000Y-121324000D01*
X160875000Y-122000000D02*
X161551000Y-121324000D01*
X112199000Y-121324000D02*
X112875000Y-122000000D01*
X132875000Y-122000000D02*
X133551000Y-121324000D01*
X145551000Y-121324000D02*
X148199000Y-121324000D01*
X113551000Y-121324000D02*
X116199000Y-121324000D01*
X116199000Y-121324000D02*
X116875000Y-122000000D01*
X128199000Y-121324000D02*
X128875000Y-122000000D01*
X117551000Y-121324000D02*
X120199000Y-121324000D01*
X153551000Y-121324000D02*
X156199000Y-121324000D01*
X124875000Y-122000000D02*
X125551000Y-121324000D01*
X104900000Y-122000000D02*
X105576000Y-121324000D01*
X152199000Y-121324000D02*
X152875000Y-122000000D01*
X99937500Y-122000000D02*
X100613500Y-121324000D01*
X144875000Y-122000000D02*
X145551000Y-121324000D01*
X164199000Y-121324000D02*
X164875000Y-122000000D01*
X156199000Y-121324000D02*
X156875000Y-122000000D01*
X120199000Y-121324000D02*
X120875000Y-122000000D01*
X105576000Y-121324000D02*
X108199000Y-121324000D01*
X133551000Y-121324000D02*
X136199000Y-121324000D01*
X109551000Y-121324000D02*
X112199000Y-121324000D01*
X104224000Y-121324000D02*
X104900000Y-122000000D01*
X124199000Y-121324000D02*
X124875000Y-122000000D01*
X120875000Y-122000000D02*
X121551000Y-121324000D01*
X156875000Y-122000000D02*
X157551000Y-121324000D01*
X137551000Y-121324000D02*
X140199000Y-121324000D01*
X136875000Y-122000000D02*
X137551000Y-121324000D01*
X160199000Y-121324000D02*
X160875000Y-122000000D01*
X149551000Y-121324000D02*
X152199000Y-121324000D01*
X140199000Y-121324000D02*
X140875000Y-122000000D01*
X108199000Y-121324000D02*
X108875000Y-122000000D01*
X129551000Y-121324000D02*
X132199000Y-121324000D01*
X141551000Y-121324000D02*
X144199000Y-121324000D01*
X128875000Y-122000000D02*
X129551000Y-121324000D01*
%TO.N,row1*%
X105975000Y-113000000D02*
X107100000Y-113000000D01*
X107100000Y-110000000D02*
X105975000Y-110000000D01*
X107100000Y-119000000D02*
X105975000Y-119000000D01*
X181412000Y-104412000D02*
X183000000Y-106000000D01*
X107100000Y-122000000D02*
X105975000Y-122000000D01*
X107100000Y-104000000D02*
X105975000Y-104000000D01*
X107100000Y-116000000D02*
X105975000Y-116000000D01*
X179700000Y-104412000D02*
X181412000Y-104412000D01*
X107100000Y-101000000D02*
X105975000Y-101000000D01*
X107100000Y-107000000D02*
X105975000Y-107000000D01*
%TO.N,row2*%
X179700000Y-105048000D02*
X180986000Y-105048000D01*
X182938000Y-107000000D02*
X184000000Y-107000000D01*
X111050000Y-107000000D02*
X109925000Y-107000000D01*
X111050000Y-104000000D02*
X109925000Y-104000000D01*
X111050000Y-122000000D02*
X109925000Y-122000000D01*
X111050000Y-101000000D02*
X109925000Y-101000000D01*
X180986000Y-105048000D02*
X182938000Y-107000000D01*
X111050000Y-119000000D02*
X109925000Y-119000000D01*
X111050000Y-116000000D02*
X109925000Y-116000000D01*
X111050000Y-110000000D02*
X109925000Y-110000000D01*
X109925000Y-113000000D02*
X111050000Y-113000000D01*
%TO.N,row3*%
X183512322Y-108000000D02*
X184000000Y-108000000D01*
X184000000Y-108000000D02*
X185000000Y-107000000D01*
X113950000Y-113000000D02*
X115075000Y-113000000D01*
X115075000Y-107000000D02*
X113950000Y-107000000D01*
X179700000Y-105682000D02*
X181194322Y-105682000D01*
X181194322Y-105682000D02*
X183512322Y-108000000D01*
X115075000Y-104000000D02*
X113950000Y-104000000D01*
X115075000Y-110000000D02*
X113950000Y-110000000D01*
X115075000Y-116000000D02*
X113950000Y-116000000D01*
X115075000Y-101000000D02*
X113950000Y-101000000D01*
X115075000Y-119000000D02*
X113950000Y-119000000D01*
X115075000Y-122000000D02*
X113950000Y-122000000D01*
%TO.N,row4*%
X179700000Y-106318000D02*
X181404644Y-106318000D01*
X119075000Y-110000000D02*
X117950000Y-110000000D01*
X181404644Y-106318000D02*
X183387644Y-108301000D01*
X119075000Y-101000000D02*
X117950000Y-101000000D01*
X119075000Y-107000000D02*
X117950000Y-107000000D01*
X119075000Y-104000000D02*
X117950000Y-104000000D01*
X119075000Y-116000000D02*
X117950000Y-116000000D01*
X119075000Y-119000000D02*
X117950000Y-119000000D01*
X183387644Y-108301000D02*
X184699000Y-108301000D01*
X184699000Y-108301000D02*
X186000000Y-107000000D01*
X117950000Y-113000000D02*
X119075000Y-113000000D01*
X119075000Y-122000000D02*
X117950000Y-122000000D01*
%TO.N,row5*%
X121975000Y-113000000D02*
X123100000Y-113000000D01*
X179700000Y-106952000D02*
X181612966Y-106952000D01*
X123100000Y-116000000D02*
X121975000Y-116000000D01*
X123100000Y-110000000D02*
X121975000Y-110000000D01*
X123100000Y-104000000D02*
X121975000Y-104000000D01*
X181612966Y-106952000D02*
X183262966Y-108602000D01*
X123100000Y-107000000D02*
X121975000Y-107000000D01*
X183262966Y-108602000D02*
X185398000Y-108602000D01*
X123100000Y-122000000D02*
X121975000Y-122000000D01*
X123100000Y-119000000D02*
X121975000Y-119000000D01*
X123100000Y-101000000D02*
X121975000Y-101000000D01*
X185398000Y-108602000D02*
X187000000Y-107000000D01*
%TO.N,row6*%
X186097000Y-108903000D02*
X187000000Y-108000000D01*
X127050000Y-119000000D02*
X125925000Y-119000000D01*
X127050000Y-116000000D02*
X125925000Y-116000000D01*
X127050000Y-107000000D02*
X125925000Y-107000000D01*
X127050000Y-122000000D02*
X125925000Y-122000000D01*
X180588000Y-107588000D02*
X181903000Y-108903000D01*
X127050000Y-101000000D02*
X125925000Y-101000000D01*
X181903000Y-108903000D02*
X186097000Y-108903000D01*
X127050000Y-104000000D02*
X125925000Y-104000000D01*
X125925000Y-113000000D02*
X127050000Y-113000000D01*
X179700000Y-107588000D02*
X180588000Y-107588000D01*
X127050000Y-110000000D02*
X125925000Y-110000000D01*
%TO.N,row7*%
X131075000Y-107000000D02*
X129950000Y-107000000D01*
X131075000Y-110000000D02*
X129950000Y-110000000D01*
X179700000Y-108222000D02*
X180796322Y-108222000D01*
X131075000Y-122000000D02*
X129950000Y-122000000D01*
X129950000Y-113000000D02*
X131075000Y-113000000D01*
X131075000Y-116000000D02*
X129950000Y-116000000D01*
X180796322Y-108222000D02*
X181778322Y-109204000D01*
X186796000Y-109204000D02*
X188000000Y-108000000D01*
X181778322Y-109204000D02*
X186796000Y-109204000D01*
X131075000Y-104000000D02*
X129950000Y-104000000D01*
X131075000Y-101000000D02*
X129950000Y-101000000D01*
X131075000Y-119000000D02*
X129950000Y-119000000D01*
%TO.N,row8*%
X135125000Y-104000000D02*
X134000000Y-104000000D01*
X135125000Y-107000000D02*
X134000000Y-107000000D01*
X135125000Y-122000000D02*
X134000000Y-122000000D01*
X134000000Y-113000000D02*
X135125000Y-113000000D01*
X135125000Y-119000000D02*
X134000000Y-119000000D01*
X182148644Y-110000000D02*
X186000000Y-110000000D01*
X135125000Y-110000000D02*
X134000000Y-110000000D01*
X135125000Y-116000000D02*
X134000000Y-116000000D01*
X135125000Y-101000000D02*
X134000000Y-101000000D01*
X181006644Y-108858000D02*
X182148644Y-110000000D01*
X179700000Y-108858000D02*
X181006644Y-108858000D01*
%TO.N,row9*%
X139150000Y-119000000D02*
X138025000Y-119000000D01*
X180492000Y-109492000D02*
X181000000Y-110000000D01*
X139150000Y-107000000D02*
X138025000Y-107000000D01*
X181000000Y-110000000D02*
X181000000Y-113000000D01*
X179700000Y-109492000D02*
X180492000Y-109492000D01*
X139150000Y-116000000D02*
X138025000Y-116000000D01*
X139150000Y-101000000D02*
X138025000Y-101000000D01*
X139150000Y-104000000D02*
X138025000Y-104000000D01*
X139150000Y-122000000D02*
X138025000Y-122000000D01*
X139150000Y-110000000D02*
X138025000Y-110000000D01*
X138025000Y-113000000D02*
X139150000Y-113000000D01*
%TO.N,row10*%
X143100000Y-104000000D02*
X141975000Y-104000000D01*
X143100000Y-122000000D02*
X141975000Y-122000000D01*
X143100000Y-110000000D02*
X141975000Y-110000000D01*
X143100000Y-101000000D02*
X141975000Y-101000000D01*
X143801000Y-122676000D02*
X143125000Y-122000000D01*
X175032521Y-122676000D02*
X143801000Y-122676000D01*
X141975000Y-113000000D02*
X143100000Y-113000000D01*
X179700000Y-110128000D02*
X179700000Y-118008521D01*
X143100000Y-119000000D02*
X141975000Y-119000000D01*
X143100000Y-116000000D02*
X141975000Y-116000000D01*
X179700000Y-118008521D02*
X175032521Y-122676000D01*
X143100000Y-107000000D02*
X141975000Y-107000000D01*
%TO.N,row11*%
X147125000Y-122000000D02*
X146000000Y-122000000D01*
X174300000Y-110300000D02*
X175000000Y-111000000D01*
X175000000Y-111000000D02*
X175000000Y-112000000D01*
X147125000Y-107000000D02*
X146000000Y-107000000D01*
X147125000Y-101000000D02*
X146000000Y-101000000D01*
X174300000Y-110128000D02*
X174300000Y-110300000D01*
X147125000Y-104000000D02*
X146000000Y-104000000D01*
X147125000Y-110000000D02*
X146000000Y-110000000D01*
X146000000Y-113000000D02*
X147125000Y-113000000D01*
X147125000Y-119000000D02*
X146000000Y-119000000D01*
X175000000Y-114000000D02*
X179000000Y-118000000D01*
X147125000Y-116000000D02*
X146000000Y-116000000D01*
X175000000Y-112000000D02*
X175000000Y-114000000D01*
%TO.N,row12*%
X177000000Y-114000000D02*
X178000000Y-115000000D01*
X151125000Y-104000000D02*
X150000000Y-104000000D01*
X176000000Y-112000000D02*
X176000000Y-113000000D01*
X151125000Y-119000000D02*
X150000000Y-119000000D01*
X151125000Y-110000000D02*
X150000000Y-110000000D01*
X151125000Y-107000000D02*
X150000000Y-107000000D01*
X151125000Y-101000000D02*
X150000000Y-101000000D01*
X176000000Y-113000000D02*
X177000000Y-114000000D01*
X151125000Y-122000000D02*
X150000000Y-122000000D01*
X151125000Y-116000000D02*
X150000000Y-116000000D01*
X176000000Y-110000000D02*
X176000000Y-112000000D01*
X150000000Y-113000000D02*
X151125000Y-113000000D01*
X178000000Y-115000000D02*
X178000000Y-116000000D01*
X174300000Y-109492000D02*
X175492000Y-109492000D01*
X175492000Y-109492000D02*
X176000000Y-110000000D01*
%TO.N,row13*%
X177000000Y-110000000D02*
X177000000Y-112000000D01*
X155150000Y-119000000D02*
X154025000Y-119000000D01*
X155150000Y-122000000D02*
X154025000Y-122000000D01*
X175858000Y-108858000D02*
X177000000Y-110000000D01*
X154025000Y-113000000D02*
X155150000Y-113000000D01*
X155150000Y-101000000D02*
X154025000Y-101000000D01*
X155150000Y-110000000D02*
X154025000Y-110000000D01*
X155150000Y-104000000D02*
X154025000Y-104000000D01*
X174300000Y-108858000D02*
X175858000Y-108858000D01*
X155150000Y-116000000D02*
X154025000Y-116000000D01*
X155150000Y-107000000D02*
X154025000Y-107000000D01*
%TO.N,row14*%
X173301000Y-108487500D02*
X173301000Y-112000000D01*
X159100000Y-110000000D02*
X157975000Y-110000000D01*
X159100000Y-101000000D02*
X157975000Y-101000000D01*
X159100000Y-107000000D02*
X157975000Y-107000000D01*
X159100000Y-104000000D02*
X157975000Y-104000000D01*
X174300000Y-108222000D02*
X173566500Y-108222000D01*
X159100000Y-119000000D02*
X157975000Y-119000000D01*
X174000000Y-112699000D02*
X174000000Y-113000000D01*
X173566500Y-108222000D02*
X173301000Y-108487500D01*
X159100000Y-116000000D02*
X157975000Y-116000000D01*
X159100000Y-122000000D02*
X157975000Y-122000000D01*
X173301000Y-112000000D02*
X174000000Y-112699000D01*
X157975000Y-113000000D02*
X159100000Y-113000000D01*
%TO.N,row15*%
X173000000Y-107938000D02*
X173000000Y-112000000D01*
X163125000Y-119000000D02*
X162000000Y-119000000D01*
X162000000Y-113000000D02*
X163125000Y-113000000D01*
X163125000Y-101000000D02*
X162000000Y-101000000D01*
X163125000Y-107000000D02*
X162000000Y-107000000D01*
X173350000Y-107588000D02*
X173000000Y-107938000D01*
X174300000Y-107588000D02*
X173350000Y-107588000D01*
X163125000Y-116000000D02*
X162000000Y-116000000D01*
X163125000Y-122000000D02*
X162000000Y-122000000D01*
X163125000Y-110000000D02*
X162000000Y-110000000D01*
X163125000Y-104000000D02*
X162000000Y-104000000D01*
X173000000Y-112000000D02*
X173000000Y-113000000D01*
%TO.N,com2*%
X168899000Y-107800000D02*
X168899000Y-105270610D01*
X166023390Y-97395000D02*
X163400000Y-97395000D01*
X170449356Y-108902000D02*
X169450644Y-108902000D01*
X98400000Y-97395000D02*
X97395000Y-97395000D01*
X169450644Y-108902000D02*
X168899000Y-108350356D01*
X98112500Y-107000000D02*
X97000000Y-107000000D01*
X93000000Y-93000000D02*
X92000000Y-93000000D01*
X167305000Y-98676610D02*
X166023390Y-97395000D01*
X171789035Y-104089035D02*
X171040500Y-104837570D01*
X163400000Y-97395000D02*
X98400000Y-97395000D01*
X167305000Y-103676610D02*
X167305000Y-98676610D01*
X172100070Y-103778000D02*
X171789035Y-104089035D01*
X168899000Y-105270610D02*
X167305000Y-103676610D01*
X171040500Y-106000000D02*
X171040500Y-107800000D01*
X171040500Y-107800000D02*
X171040500Y-108310856D01*
X171040500Y-108310856D02*
X170449356Y-108902000D01*
X171040500Y-104837570D02*
X171040500Y-106000000D01*
X168899000Y-108350356D02*
X168899000Y-107800000D01*
X174300000Y-103778000D02*
X172100070Y-103778000D01*
X97395000Y-97395000D02*
X93000000Y-93000000D01*
%TO.N,com5*%
X167996000Y-108724390D02*
X169076610Y-109805000D01*
X165649356Y-98298000D02*
X166402000Y-99050644D01*
X172061500Y-105682000D02*
X174300000Y-105682000D01*
X170823390Y-109805000D02*
X171943500Y-108684890D01*
X98112500Y-116000000D02*
X97000000Y-116000000D01*
X166402000Y-104050644D02*
X167996000Y-105644644D01*
X163400000Y-98298000D02*
X165649356Y-98298000D01*
X171943500Y-105800000D02*
X172061500Y-105682000D01*
X166402000Y-99050644D02*
X166402000Y-104050644D01*
X167996000Y-105644644D02*
X167996000Y-108724390D01*
X163400000Y-98298000D02*
X98400000Y-98298000D01*
X98400000Y-98298000D02*
X95298000Y-98298000D01*
X171943500Y-108684890D02*
X171943500Y-105800000D01*
X95298000Y-98298000D02*
X93000000Y-96000000D01*
X169076610Y-109805000D02*
X170823390Y-109805000D01*
X93000000Y-96000000D02*
X92000000Y-96000000D01*
%TO.N,com7*%
X172545500Y-108934246D02*
X171072746Y-110407000D01*
X167394000Y-108973746D02*
X167394000Y-107800000D01*
X163400000Y-98900000D02*
X98400000Y-98900000D01*
X172693500Y-106952000D02*
X172545500Y-107100000D01*
X98112500Y-122000000D02*
X97000000Y-122000000D01*
X167394000Y-107800000D02*
X167394000Y-105894000D01*
X93900000Y-98900000D02*
X93000000Y-98000000D01*
X167394000Y-105894000D02*
X165800000Y-104300000D01*
X165800000Y-104300000D02*
X165800000Y-99300000D01*
X165800000Y-99300000D02*
X165400000Y-98900000D01*
X171072746Y-110407000D02*
X168827254Y-110407000D01*
X98400000Y-98900000D02*
X93900000Y-98900000D01*
X93000000Y-98000000D02*
X92000000Y-98000000D01*
X172545500Y-107800000D02*
X172545500Y-108934246D01*
X165400000Y-98900000D02*
X163400000Y-98900000D01*
X168827254Y-110407000D02*
X167394000Y-108973746D01*
X174300000Y-106952000D02*
X172693500Y-106952000D01*
X172545500Y-107100000D02*
X172545500Y-107800000D01*
%TO.N,com1*%
X174300000Y-103142000D02*
X172310392Y-103142000D01*
X170739500Y-108186178D02*
X170324678Y-108601000D01*
X98400000Y-97094000D02*
X98094000Y-97094000D01*
X167606000Y-103551932D02*
X167606000Y-100000000D01*
X169200000Y-105145932D02*
X168227034Y-104172966D01*
X170739500Y-105000000D02*
X170739500Y-106000000D01*
X170739500Y-106000000D02*
X170739500Y-107800000D01*
X93000000Y-92000000D02*
X92000000Y-92000000D01*
X170324678Y-108601000D02*
X169575322Y-108601000D01*
X166148068Y-97094000D02*
X163400000Y-97094000D01*
X170739500Y-107800000D02*
X170739500Y-108186178D01*
X170739500Y-104712892D02*
X170739500Y-105000000D01*
X169200000Y-107800000D02*
X169200000Y-105145932D01*
X169575322Y-108601000D02*
X169200000Y-108225678D01*
X169200000Y-108225678D02*
X169200000Y-107800000D01*
X98094000Y-97094000D02*
X93000000Y-92000000D01*
X172310392Y-103142000D02*
X171226196Y-104226196D01*
X163400000Y-97094000D02*
X98400000Y-97094000D01*
X168227034Y-104172966D02*
X167606000Y-103551932D01*
X98112500Y-104000000D02*
X97000000Y-104000000D01*
X167606000Y-98551932D02*
X166148068Y-97094000D01*
X167606000Y-100000000D02*
X167606000Y-98551932D01*
X171226196Y-104226196D02*
X170739500Y-104712892D01*
%TO.N,com4*%
X168297000Y-105519966D02*
X166788517Y-104011483D01*
X165774034Y-97997000D02*
X165524678Y-97997000D01*
X95997000Y-97997000D02*
X93000000Y-95000000D01*
X98112500Y-113000000D02*
X97000000Y-113000000D01*
X168297000Y-108599712D02*
X168297000Y-105519966D01*
X171642500Y-105400000D02*
X171642500Y-108560212D01*
X166703000Y-99200000D02*
X166703000Y-98925966D01*
X93000000Y-95000000D02*
X92000000Y-95000000D01*
X170698712Y-109504000D02*
X169201288Y-109504000D01*
X165524678Y-97997000D02*
X163400000Y-97997000D01*
X166788517Y-104011483D02*
X166703000Y-103925966D01*
X163400000Y-97997000D02*
X98400000Y-97997000D01*
X169201288Y-109504000D02*
X168297000Y-108599712D01*
X166703000Y-98925966D02*
X165774034Y-97997000D01*
X174300000Y-105048000D02*
X171994500Y-105048000D01*
X171642500Y-108560212D02*
X170698712Y-109504000D01*
X98400000Y-97997000D02*
X95997000Y-97997000D01*
X171994500Y-105048000D02*
X171642500Y-105400000D01*
X166703000Y-103925966D02*
X166703000Y-99200000D01*
%TO.N,com3*%
X174300000Y-104412000D02*
X171891748Y-104412000D01*
X98112500Y-110000000D02*
X97000000Y-110000000D01*
X96696000Y-97696000D02*
X93000000Y-94000000D01*
X171341500Y-108435534D02*
X170574034Y-109203000D01*
X171341500Y-104962248D02*
X171341500Y-108435534D01*
X167004000Y-98801288D02*
X165898712Y-97696000D01*
X167004000Y-103801288D02*
X167004000Y-98801288D01*
X171891748Y-104412000D02*
X171341500Y-104962248D01*
X168598000Y-108475034D02*
X168598000Y-105395288D01*
X170574034Y-109203000D02*
X169325966Y-109203000D01*
X93000000Y-94000000D02*
X92000000Y-94000000D01*
X168598000Y-105395288D02*
X167004000Y-103801288D01*
X169325966Y-109203000D02*
X168598000Y-108475034D01*
X165898712Y-97696000D02*
X96696000Y-97696000D01*
%TO.N,Net-(IC1-SCL)*%
X185087500Y-106000000D02*
X182229500Y-103142000D01*
X182229500Y-103142000D02*
X179700000Y-103142000D01*
%TO.N,Net-(IC1-SDA)*%
X185087500Y-103000000D02*
X184595500Y-102508000D01*
X184595500Y-102508000D02*
X179700000Y-102508000D01*
%TO.N,com6*%
X168951932Y-110106000D02*
X167695000Y-108849068D01*
X98401000Y-98599000D02*
X98400000Y-98600000D01*
X170948068Y-110106000D02*
X168951932Y-110106000D01*
X98112500Y-119000000D02*
X97000000Y-119000000D01*
X172244500Y-108809568D02*
X170948068Y-110106000D01*
X167695000Y-105769322D02*
X166101000Y-104175322D01*
X166101000Y-104175322D02*
X166101000Y-99175322D01*
X167695000Y-108849068D02*
X167695000Y-105769322D01*
X166101000Y-99175322D02*
X165524678Y-98599000D01*
X93000000Y-97000000D02*
X92000000Y-97000000D01*
X172726500Y-106318000D02*
X172244500Y-106800000D01*
X165524678Y-98599000D02*
X98401000Y-98599000D01*
X174300000Y-106318000D02*
X172726500Y-106318000D01*
X98400000Y-98600000D02*
X94600000Y-98600000D01*
X172244500Y-106800000D02*
X172244500Y-108809568D01*
X94600000Y-98600000D02*
X93000000Y-97000000D01*
%TO.N,com0*%
X169500000Y-105271610D02*
X169501000Y-105270610D01*
X174300000Y-102508000D02*
X172518714Y-102508000D01*
X169700000Y-108300000D02*
X169500000Y-108100000D01*
X167907000Y-103427254D02*
X167907000Y-98427254D01*
X172518714Y-102508000D02*
X170438500Y-104588214D01*
X170438500Y-108061500D02*
X170200000Y-108300000D01*
X166272746Y-96793000D02*
X98400000Y-96793000D01*
X170200000Y-108300000D02*
X169700000Y-108300000D01*
X167907000Y-98427254D02*
X166272746Y-96793000D01*
X170438500Y-104588214D02*
X170438500Y-108061500D01*
X169501000Y-105021254D02*
X167907000Y-103427254D01*
X98400000Y-96400000D02*
X93000000Y-91000000D01*
X93000000Y-91000000D02*
X92000000Y-91000000D01*
X98400000Y-96793000D02*
X98400000Y-96400000D01*
X169501000Y-105270610D02*
X169501000Y-105021254D01*
X169500000Y-108100000D02*
X169500000Y-105271610D01*
X98112500Y-101000000D02*
X97000000Y-101000000D01*
%TO.N,Net-(J1-Pin_4)*%
X188699000Y-108875322D02*
X186875322Y-110699000D01*
X182000000Y-111574322D02*
X182000000Y-121000000D01*
X182875322Y-110699000D02*
X182000000Y-111574322D01*
X188699000Y-107786500D02*
X188699000Y-108875322D01*
X182620000Y-121620000D02*
X185000000Y-121620000D01*
X186875322Y-110699000D02*
X182875322Y-110699000D01*
X186912500Y-106000000D02*
X188699000Y-107786500D01*
X182000000Y-121000000D02*
X182620000Y-121620000D01*
%TO.N,Net-(J1-Pin_3)*%
X187000000Y-111000000D02*
X183000000Y-111000000D01*
X189000000Y-109000000D02*
X187000000Y-111000000D01*
X183080000Y-119080000D02*
X185000000Y-119080000D01*
X188000000Y-103000000D02*
X189000000Y-104000000D01*
X186912500Y-103000000D02*
X187000000Y-103000000D01*
X186912500Y-103000000D02*
X188000000Y-103000000D01*
X183000000Y-111000000D02*
X182301000Y-111699000D01*
X182301000Y-118301000D02*
X183080000Y-119080000D01*
X182301000Y-111699000D02*
X182301000Y-118301000D01*
X189000000Y-104000000D02*
X189000000Y-109000000D01*
%TD*%
M02*
